<svg width="23" height="17" viewBox="0 0 23 17" fill="none" xmlns="http://www.w3.org/2000/svg">
<path d="M2.01404 2.89062H20.014V0.890625H2.01404C0.914038 0.890625 0.0140381 1.79062 0.0140381 2.89062V14.8906C0.0140381 15.9906 0.914038 16.8906 2.01404 16.8906H6.01404V14.8906H2.01404V2.89062ZM12.014 8.89062H8.01404V10.6706C7.40404 11.2206 7.01404 12.0006 7.01404 12.8906C7.01404 13.7806 7.40404 14.5606 8.01404 15.1106V16.8906H12.014V15.1106C12.624 14.5606 13.014 13.7706 13.014 12.8906C13.014 12.0106 12.624 11.2206 12.014 10.6706V8.89062ZM10.014 14.3906C9.18404 14.3906 8.51404 13.7206 8.51404 12.8906C8.51404 12.0606 9.18404 11.3906 10.014 11.3906C10.844 11.3906 11.514 12.0606 11.514 12.8906C11.514 13.7206 10.844 14.3906 10.014 14.3906ZM21.014 4.89062H15.014C14.514 4.89062 14.014 5.39062 14.014 5.89062V15.8906C14.014 16.3906 14.514 16.8906 15.014 16.8906H21.014C21.514 16.8906 22.014 16.3906 22.014 15.8906V5.89062C22.014 5.39062 21.514 4.89062 21.014 4.89062ZM20.014 14.8906H16.014V6.89062H20.014V14.8906Z" fill="black"/>
</svg>
