<svg width="23" height="16" viewBox="0 0 23 16" fill="none" xmlns="http://www.w3.org/2000/svg">
<path d="M10.9805 7.89062C7.70265 7.89062 4.44411 7.89062 1.16628 7.89062C0.395026 7.89062 0.00939941 7.52918 0.00939941 6.78822C0.00939941 5.01713 0.00939941 3.26412 0.00939941 1.49303C0.00939941 0.752071 0.395026 0.390625 1.18556 0.390625C7.74121 0.390625 14.2969 0.390625 20.8332 0.390625C21.6045 0.390625 22.0094 0.752071 22.0094 1.47496C22.0094 3.24605 22.0094 5.0352 22.0094 6.80629C22.0094 7.51111 21.6045 7.87255 20.8718 7.87255C17.5747 7.89063 14.2776 7.89062 10.9805 7.89062ZM20.0041 2.28822C13.9884 2.28822 8.01115 2.28822 2.03394 2.28822C2.03394 3.5352 2.03394 4.76412 2.03394 5.99303C8.03043 5.99303 14.0076 5.99303 20.0041 5.99303C20.0041 4.74605 20.0041 3.51713 20.0041 2.28822Z" fill="#312522"/>
<path d="M11.0191 13.5111C14.3162 13.5111 17.6326 13.5111 20.9297 13.5111C21.4503 13.5111 21.8359 13.7641 21.9709 14.1798C22.1444 14.722 21.7781 15.2641 21.1803 15.3726C21.0647 15.3906 20.9682 15.3906 20.8526 15.3906C14.2969 15.3906 7.74125 15.3906 1.1856 15.3906C0.549315 15.3906 0.144407 15.1195 0.0480005 14.6135C-0.0676875 14.0713 0.356502 13.5473 0.954223 13.5111C1.03135 13.5111 1.12776 13.5111 1.20488 13.5111C4.48271 13.5111 7.74125 13.5111 11.0191 13.5111Z" fill="#312522"/>
<path d="M10.9998 11.6316C7.70268 11.6316 4.40557 11.6316 1.10847 11.6316C0.491463 11.6316 0.0865554 11.3424 0.00943011 10.8183C-0.0676952 10.3123 0.337213 9.80629 0.896371 9.77014C0.973497 9.77014 1.0699 9.77014 1.14703 9.77014C7.72196 9.77014 14.2776 9.77014 20.8525 9.77014C21.5081 9.77014 21.913 10.0593 21.9901 10.5834C22.0673 11.0894 21.6624 11.5774 21.1225 11.6135C21.0068 11.6316 20.9104 11.6135 20.7947 11.6135C17.5362 11.6316 14.2776 11.6316 10.9998 11.6316Z" fill="#312522"/>
</svg>
