<svg width="23" height="22" viewBox="0 0 23 22" fill="none" xmlns="http://www.w3.org/2000/svg">
<path d="M11.014 5.89062H4.01404V7.89062H11.014V5.89062Z" fill="black"/>
<path d="M8.01404 11.8906H4.01404V13.8906H8.01404V11.8906Z" fill="black"/>
<path d="M13.014 11.8606V15.8906H4.01404L2.01404 17.8906V3.89062H13.014V5.92063C13.534 5.23063 14.214 4.67062 15.014 4.32062V3.89062C15.014 2.79062 14.114 1.89062 13.014 1.89062H2.01404C0.914038 1.89062 0.0240381 2.79062 0.0240381 3.89062L0.0140381 21.8906L4.01404 17.8906H13.014C14.114 17.8906 15.014 16.9906 15.014 15.8906V13.4706C14.214 13.1106 13.534 12.5506 13.014 11.8606Z" fill="black"/>
<path d="M11.014 8.89062H4.01404V10.8906H11.014V8.89062Z" fill="black"/>
<path d="M18.014 6.07062C17.704 5.96062 17.364 5.89062 17.014 5.89062C15.354 5.89062 14.014 7.23063 14.014 8.89062C14.014 10.5506 15.354 11.8906 17.014 11.8906C18.674 11.8906 20.014 10.5506 20.014 8.89062V2.89062H22.014V0.890625H18.014V6.07062Z" fill="black"/>
</svg>
