<svg width="16" height="14" viewBox="0 0 16 14" fill="none" xmlns="http://www.w3.org/2000/svg">
<path d="M8.81423 0.0427516C9.02326 0.115547 9.1696 0.270851 9.20715 0.451307L9.21664 0.543366V12.4974C9.21664 12.7163 9.05751 12.9138 8.81294 12.9985C8.60331 13.0711 8.366 13.0485 8.18334 12.9441L8.09695 12.8851L4.24382 9.7607H1.975C0.948409 9.7607 0.104744 9.11419 0.00904115 8.2876L0 8.13062V4.88239C0 4.03508 0.783278 3.33875 1.7848 3.25976L1.975 3.25229H4.24545L8.09895 0.154152C8.28856 0.00170573 8.57034 -0.0421765 8.81423 0.0427516ZM12.8213 1.15105L12.9353 1.21494L13.0641 1.30685C13.1469 1.36828 13.2612 1.45727 13.3965 1.57326C13.6668 1.80494 14.0231 2.14633 14.3786 2.59323C15.0901 3.48773 15.8043 4.8135 15.8043 6.52479C15.8043 8.23617 15.09 9.55998 14.3781 10.4525C14.0225 10.8984 13.666 11.2388 13.3956 11.4697L13.2096 11.6229L12.9637 11.8065L12.9203 11.8359C12.6352 12.0223 12.2202 11.9833 11.9944 11.7481C11.7942 11.5395 11.8094 11.2469 12.0143 11.0534L12.1844 10.9258C12.2458 10.8805 12.3373 10.8097 12.4489 10.7144C12.6726 10.5234 12.9751 10.2353 13.2784 9.85503C13.8842 9.09529 14.4876 7.9761 14.4876 6.52479C14.4876 5.07337 13.8842 3.95182 13.2779 3.18965C13.0251 2.8718 12.7728 2.61794 12.5662 2.43109L12.3434 2.23953L12.1007 2.05542C11.8167 1.86844 11.7691 1.52633 11.9955 1.29167C12.1968 1.08299 12.5463 1.02915 12.8213 1.15105ZM11.5057 3.3244L11.6368 3.40019L11.8128 3.53683L11.8839 3.59837C12.0334 3.73142 12.2261 3.92632 12.4171 4.18547C12.8009 4.70659 13.1723 5.4819 13.1723 6.51881C13.1723 7.5557 12.8009 8.33183 12.4173 8.85371C12.2267 9.11322 12.0339 9.30862 11.8846 9.44196L11.7509 9.55527L11.6583 9.62593L11.606 9.66257L11.5224 9.69388C11.3481 9.75151 10.9404 9.84543 10.6808 9.57726C10.48 9.36996 10.493 9.0786 10.6951 8.88437L10.8722 8.74392L10.9175 8.7045C11.0156 8.61695 11.1527 8.4792 11.2916 8.2901C11.5675 7.91468 11.8556 7.33119 11.8556 6.51881C11.8556 5.70649 11.5675 5.12418 11.292 4.75C11.1878 4.60862 11.0847 4.49611 10.9984 4.41194L10.873 4.29797L10.7828 4.22733C10.5001 4.04126 10.4536 3.70002 10.6798 3.4653C10.881 3.25655 11.2306 3.2026 11.5057 3.3244Z" fill="#312522"/>
</svg>
