<svg width="13" height="11" viewBox="0 0 13 11" fill="none" xmlns="http://www.w3.org/2000/svg">
<path d="M0.623244 0H11.8416C12.0069 0 12.1655 0.0632141 12.2823 0.175736C12.3992 0.288258 12.4649 0.44087 12.4649 0.6V10.2C12.4649 10.3591 12.3992 10.5117 12.2823 10.6243C12.1655 10.7368 12.0069 10.8 11.8416 10.8H0.623244C0.45795 10.8 0.299425 10.7368 0.182544 10.6243C0.065663 10.5117 0 10.3591 0 10.2V0.6C0 0.44087 0.065663 0.288258 0.182544 0.175736C0.299425 0.0632141 0.45795 0 0.623244 0ZM1.24649 1.2V9.6H11.2184V1.2H1.24649ZM4.36271 4.8H5.6092V6H4.36271V7.2H3.11622V6H1.86973V4.8H3.11622V3.6H4.36271V4.8ZM6.85569 4.8H10.5952V6H6.85569V4.8Z" fill="#A8A8A8"/>
</svg>
