<svg width="20" height="19" viewBox="0 0 20 19" fill="none" xmlns="http://www.w3.org/2000/svg">
<path d="M8.60012 4.0921H11.6496C11.6496 3.25001 10.967 2.56737 10.1248 2.56737C9.28274 2.56737 8.60012 3.25001 8.60012 4.0921ZM7.45658 4.0921C7.45658 2.61845 8.6512 1.42383 10.1248 1.42383C11.5985 1.42383 12.7931 2.61845 12.7931 4.0921H17.1767C17.4925 4.0921 17.7485 4.34809 17.7485 4.66387C17.7485 4.97965 17.4925 5.23564 17.1767 5.23564H16.1711L15.2776 14.4688C15.1358 15.9342 13.9043 17.0523 12.432 17.0523H7.8177C6.34546 17.0523 5.11395 15.9342 4.97214 14.4688L4.07861 5.23564H3.07299C2.75721 5.23564 2.50122 4.97965 2.50122 4.66387C2.50122 4.34809 2.75721 4.0921 3.07299 4.0921H7.45658ZM8.9813 7.71332C8.9813 7.39754 8.7253 7.14155 8.40953 7.14155C8.09375 7.14155 7.83776 7.39754 7.83776 7.71332V13.431C7.83776 13.7468 8.09375 14.0028 8.40953 14.0028C8.7253 14.0028 8.9813 13.7468 8.9813 13.431V7.71332ZM11.8402 7.14155C12.1559 7.14155 12.4119 7.39754 12.4119 7.71332V13.431C12.4119 13.7468 12.1559 14.0028 11.8402 14.0028C11.5244 14.0028 11.2684 13.7468 11.2684 13.431V7.71332C11.2684 7.39754 11.5244 7.14155 11.8402 7.14155ZM6.11037 14.3586C6.19545 15.2378 6.93436 15.9087 7.8177 15.9087H12.432C13.3153 15.9087 14.0542 15.2378 14.1393 14.3586L15.0222 5.23564H5.22749L6.11037 14.3586Z" fill="#A1A1A1"/>
</svg>
