<svg width="20" height="20" viewBox="0 0 20 20" fill="none" xmlns="http://www.w3.org/2000/svg">
<path d="M7 14C7.55 14 8.02083 13.8042 8.4125 13.4125C8.80417 13.0208 9 12.55 9 12C9 11.45 8.80417 10.9792 8.4125 10.5875C8.02083 10.1958 7.55 10 7 10C6.45 10 5.97917 10.1958 5.5875 10.5875C5.19583 10.9792 5 11.45 5 12C5 12.55 5.19583 13.0208 5.5875 13.4125C5.97917 13.8042 6.45 14 7 14ZM13 14C13.55 14 14.0208 13.8042 14.4125 13.4125C14.8042 13.0208 15 12.55 15 12C15 11.45 14.8042 10.9792 14.4125 10.5875C14.0208 10.1958 13.55 10 13 10C12.45 10 11.9792 10.1958 11.5875 10.5875C11.1958 10.9792 11 11.45 11 12C11 12.55 11.1958 13.0208 11.5875 13.4125C11.9792 13.8042 12.45 14 13 14ZM10 9C10.55 9 11.0208 8.80417 11.4125 8.4125C11.8042 8.02083 12 7.55 12 7C12 6.45 11.8042 5.97917 11.4125 5.5875C11.0208 5.19583 10.55 5 10 5C9.45 5 8.97917 5.19583 8.5875 5.5875C8.19583 5.97917 8 6.45 8 7C8 7.55 8.19583 8.02083 8.5875 8.4125C8.97917 8.80417 9.45 9 10 9ZM10 20C8.61667 20 7.31667 19.7375 6.1 19.2125C4.88333 18.6875 3.825 17.975 2.925 17.075C2.025 16.175 1.3125 15.1167 0.7875 13.9C0.2625 12.6833 0 11.3833 0 10C0 8.61667 0.2625 7.31667 0.7875 6.1C1.3125 4.88333 2.025 3.825 2.925 2.925C3.825 2.025 4.88333 1.3125 6.1 0.7875C7.31667 0.2625 8.61667 0 10 0C11.3833 0 12.6833 0.2625 13.9 0.7875C15.1167 1.3125 16.175 2.025 17.075 2.925C17.975 3.825 18.6875 4.88333 19.2125 6.1C19.7375 7.31667 20 8.61667 20 10C20 11.3833 19.7375 12.6833 19.2125 13.9C18.6875 15.1167 17.975 16.175 17.075 17.075C16.175 17.975 15.1167 18.6875 13.9 19.2125C12.6833 19.7375 11.3833 20 10 20ZM10 18C12.2333 18 14.125 17.225 15.675 15.675C17.225 14.125 18 12.2333 18 10C18 7.76667 17.225 5.875 15.675 4.325C14.125 2.775 12.2333 2 10 2C7.76667 2 5.875 2.775 4.325 4.325C2.775 5.875 2 7.76667 2 10C2 12.2333 2.775 14.125 4.325 15.675C5.875 17.225 7.76667 18 10 18Z" fill="#312522"/>
</svg>
