<svg width="15" height="15" viewBox="0 0 15 15" fill="none" xmlns="http://www.w3.org/2000/svg">
<path d="M3.12803 12C3.43691 11.1261 4.27034 10.5 5.25 10.5C6.22965 10.5 7.06313 11.1261 7.37197 12H15V13.5H7.37197C7.06313 14.3739 6.22965 15 5.25 15C4.27034 15 3.43691 14.3739 3.12803 13.5H0V12H3.12803ZM7.62803 6.75C7.93687 5.87611 8.77035 5.25 9.75 5.25C10.7297 5.25 11.5631 5.87611 11.872 6.75H15V8.25H11.872C11.5631 9.1239 10.7297 9.75 9.75 9.75C8.77035 9.75 7.93687 9.1239 7.62803 8.25H0V6.75H7.62803ZM3.12803 1.5C3.43691 0.626108 4.27034 0 5.25 0C6.22965 0 7.06313 0.626108 7.37197 1.5H15V3H7.37197C7.06313 3.87389 6.22965 4.5 5.25 4.5C4.27034 4.5 3.43691 3.87389 3.12803 3H0V1.5H3.12803ZM5.25 3C5.66421 3 6 2.66421 6 2.25C6 1.83579 5.66421 1.5 5.25 1.5C4.83579 1.5 4.5 1.83579 4.5 2.25C4.5 2.66421 4.83579 3 5.25 3ZM9.75 8.25C10.1642 8.25 10.5 7.91423 10.5 7.5C10.5 7.08577 10.1642 6.75 9.75 6.75C9.33578 6.75 9 7.08577 9 7.5C9 7.91423 9.33578 8.25 9.75 8.25ZM5.25 13.5C5.66421 13.5 6 13.1642 6 12.75C6 12.3358 5.66421 12 5.25 12C4.83579 12 4.5 12.3358 4.5 12.75C4.5 13.1642 4.83579 13.5 5.25 13.5Z" fill="#A8A8A8"/>
</svg>
