<svg width="18" height="18" viewBox="0 0 18 18" fill="none" xmlns="http://www.w3.org/2000/svg">
<path d="M16.5 9C16.5 13.1421 13.1421 16.5 9 16.5C4.8579 16.5 1.5 13.1421 1.5 9C1.5 4.8579 4.8579 1.5 9 1.5C13.1421 1.5 16.5 4.8579 16.5 9ZM15.375 9C15.375 5.4792 12.5208 2.625 9 2.625C5.4792 2.625 2.625 5.4792 2.625 9C2.625 12.5208 5.4792 15.375 9 15.375C12.5208 15.375 15.375 12.5208 15.375 9ZM10.5227 5.60227C10.7424 5.82195 10.7424 6.17805 10.5227 6.39772L7.92053 9L10.5227 11.6023C10.7424 11.8219 10.7424 12.1781 10.5227 12.3977C10.303 12.6174 9.94695 12.6174 9.72728 12.3977L6.72728 9.39772C6.5076 9.17805 6.5076 8.82195 6.72728 8.60227L9.72728 5.60227C9.94695 5.3826 10.3031 5.3826 10.5227 5.60227Z" fill="#A8A8A8"/>
</svg>
