<svg width="13" height="15" viewBox="0 0 13 15" fill="none" xmlns="http://www.w3.org/2000/svg">
<path d="M6.23279 1.34161C5.67839 1.34161 5.1467 1.55363 4.75467 1.93103C4.36265 2.30843 4.14242 2.82029 4.14242 3.35402V6.03723C4.14242 6.57095 4.36265 7.08282 4.75467 7.46022C5.1467 7.83762 5.67839 8.04964 6.23279 8.04964C6.78719 8.04964 7.31889 7.83762 7.71091 7.46022C8.10293 7.08282 8.32316 6.57095 8.32316 6.03723V3.35402C8.32316 2.82029 8.10293 2.30843 7.71091 1.93103C7.31889 1.55363 6.78719 1.34161 6.23279 1.34161ZM6.23279 0C6.69031 0 7.14335 0.0867542 7.56604 0.255309C7.98873 0.423864 8.3728 0.670919 8.69632 0.982369C9.01983 1.29382 9.27646 1.66356 9.45154 2.07049C9.62663 2.47742 9.71674 2.91356 9.71674 3.35402V6.03723C9.71674 6.92677 9.34969 7.77988 8.69632 8.40888C8.04295 9.03788 7.15679 9.39125 6.23279 9.39125C5.30879 9.39125 4.42263 9.03788 3.76926 8.40888C3.1159 7.77988 2.74884 6.92677 2.74884 6.03723V3.35402C2.74884 2.46448 3.1159 1.61137 3.76926 0.982369C4.42263 0.353369 5.30879 0 6.23279 0ZM0 6.70803H1.40403C1.57286 7.82477 2.15369 8.84567 3.04026 9.58395C3.92683 10.3222 5.05987 10.7285 6.23209 10.7285C7.40432 10.7285 8.53736 10.3222 9.42393 9.58395C10.3105 8.84567 10.8913 7.82477 11.0602 6.70803H12.4649C12.3065 8.0689 11.6724 9.33755 10.6666 10.3059C9.66087 11.2743 8.34315 11.8849 6.92958 12.0376V14.7577H5.536V12.0376C4.12231 11.885 2.80443 11.2745 1.79854 10.3061C0.792646 9.33773 0.158459 8.069 0 6.70803Z" fill="#A8A8A8"/>
</svg>
