<svg width="13" height="12" viewBox="0 0 13 12" fill="none" xmlns="http://www.w3.org/2000/svg">
<path d="M8.10218 1.5192V5.97C8.10197 6.35206 7.97549 6.72414 7.74105 7.0324C7.5066 7.34067 7.17636 7.56912 6.79809 7.68471C6.41983 7.80029 6.01318 7.79701 5.63699 7.67533C5.26079 7.55366 4.93457 7.31991 4.70553 7.0079C4.47649 6.6959 4.35651 6.32182 4.36296 5.93982C4.3694 5.55781 4.50194 5.18769 4.74139 4.88301C4.98084 4.57833 5.31477 4.3549 5.69488 4.24506C6.07498 4.13521 6.48153 4.14465 6.85569 4.272V0C10.0049 0.3006 12.4649 2.859 12.4649 5.97C12.4649 9.2838 9.67462 11.97 6.23244 11.97C2.79026 11.97 0 9.2838 0 5.97C0 2.859 2.45995 0.3006 5.6092 0V1.2072C4.35194 1.36121 3.20276 1.97032 2.39525 2.91073C1.58773 3.85114 1.18247 5.05228 1.26183 6.27002C1.3412 7.48775 1.89923 8.63071 2.82251 9.46657C3.7458 10.3024 4.96504 10.7685 6.23244 10.77C7.39002 10.7706 8.51175 10.3835 9.40524 9.67494C10.2987 8.96641 10.9083 7.98067 11.1294 6.88678C11.3505 5.79289 11.1693 4.65903 10.617 3.67967C10.0646 2.70031 9.17554 1.93648 8.10218 1.5192Z" fill="#A8A8A8"/>
</svg>
