<svg width="13" height="12" viewBox="0 0 13 12" fill="none" xmlns="http://www.w3.org/2000/svg">
<path d="M6.23244 12C2.79026 12 0 9.3138 0 6C0 2.6862 2.79026 0 6.23244 0C9.67462 0 12.4649 2.6862 12.4649 6C12.4649 9.3138 9.67462 12 6.23244 12ZM4.80521 10.6002C4.19033 9.34459 3.83412 7.98613 3.75629 6.6H1.28513C1.4064 7.52334 1.80362 8.3929 2.42851 9.10302C3.05341 9.81315 3.87908 10.3333 4.80521 10.6002ZM5.00465 6.6C5.09876 8.0634 5.53316 9.438 6.23244 10.6512C6.95062 9.40593 7.37014 8.02169 7.46023 6.6H5.00465ZM11.1798 6.6H8.70859C8.63077 7.98613 8.27456 9.34459 7.65967 10.6002C8.5858 10.3333 9.41148 9.81315 10.0364 9.10302C10.6613 8.3929 11.0585 7.52334 11.1798 6.6ZM1.28513 5.4H3.75629C3.83412 4.01387 4.19033 2.65541 4.80521 1.3998C3.87908 1.66673 3.05341 2.18685 2.42851 2.89698C1.80362 3.6071 1.4064 4.47666 1.28513 5.4ZM5.00527 5.4H7.45961C7.36971 3.97836 6.9504 2.59412 6.23244 1.3488C5.51427 2.59407 5.09475 3.97831 5.00465 5.4H5.00527ZM7.65967 1.3998C8.27456 2.65541 8.63077 4.01387 8.70859 5.4H11.1798C11.0585 4.47666 10.6613 3.6071 10.0364 2.89698C9.41148 2.18685 8.5858 1.66673 7.65967 1.3998Z" fill="#A8A8A8"/>
</svg>
