<svg width="16" height="20" viewBox="0 0 16 20" fill="none" xmlns="http://www.w3.org/2000/svg">
<path d="M7.58644 20C8.68644 20 9.58644 19.1 9.58644 18H5.58644C5.58644 19.1 6.47644 20 7.58644 20ZM13.5864 14V9C13.5864 5.93 11.9464 3.36 9.08644 2.68V2C9.08644 1.17 8.41644 0.5 7.58644 0.5C6.75644 0.5 6.08644 1.17 6.08644 2V2.68C3.21644 3.36 1.58644 5.92 1.58644 9V14L0.296477 15.29C-0.333523 15.92 0.106477 17 0.996477 17H14.1664C15.0564 17 15.5064 15.92 14.8764 15.29L13.5864 14Z" fill="#312522"/>
</svg>
