<svg width="18" height="13" viewBox="0 0 18 13" fill="none" xmlns="http://www.w3.org/2000/svg">
<path d="M1 5.5H11.9068H1Z" fill="#A8A8A8"/>
<path d="M1 5.5H11.9068" stroke="#A8A8A8" stroke-width="1.5" stroke-linecap="round" stroke-linejoin="round"/>
<path d="M1 10H9.56961H1Z" fill="#A8A8A8"/>
<path d="M1 10H9.56961" stroke="#A8A8A8" stroke-width="1.5" stroke-linecap="round" stroke-linejoin="round"/>
<path d="M1 1H15.023H1Z" fill="#A8A8A8"/>
<path d="M1 1H15.023" stroke="#A8A8A8" stroke-width="1.5" stroke-linecap="round" stroke-linejoin="round"/>
<path d="M15.0227 11.125C15.0227 11.7463 14.4995 12.25 13.8541 12.25C13.2088 12.25 12.6855 11.7463 12.6855 11.125C12.6855 10.5037 13.2088 10 13.8541 10C14.4995 10 15.0227 10.5037 15.0227 11.125Z" fill="#A8A8A8"/>
<path d="M15.0227 11.125V5.2C15.0227 4.95145 15.232 4.75 15.4901 4.75H16.5808M15.0227 11.125C15.0227 11.7463 14.4995 12.25 13.8541 12.25C13.2088 12.25 12.6855 11.7463 12.6855 11.125C12.6855 10.5037 13.2088 10 13.8541 10C14.4995 10 15.0227 10.5037 15.0227 11.125Z" stroke="#A8A8A8" stroke-width="1.5" stroke-linecap="round"/>
</svg>
