<svg width="19" height="19" viewBox="0 0 19 19" fill="none" xmlns="http://www.w3.org/2000/svg">
<path fill-rule="evenodd" clip-rule="evenodd" d="M14.5633 8.94523H10.2104V4.59226C10.2104 4.19106 9.88534 3.86676 9.48487 3.86676C9.0844 3.86676 8.75938 4.19106 8.75938 4.59226V8.94523H4.4064C4.00593 8.94523 3.68091 9.26952 3.68091 9.67072C3.68091 10.0719 4.00593 10.3962 4.4064 10.3962H8.75938V14.7492C8.75938 15.1504 9.0844 15.4747 9.48487 15.4747C9.88534 15.4747 10.2104 15.1504 10.2104 14.7492V10.3962H14.5633C14.9638 10.3962 15.2888 10.0719 15.2888 9.67072C15.2888 9.26952 14.9638 8.94523 14.5633 8.94523Z" fill="white"/>
</svg>
