<svg width="16" height="18" viewBox="0 0 16 18" fill="none" xmlns="http://www.w3.org/2000/svg">
<path d="M7.25004 3C5.75004 4.5 2.45004 7.2 1.25004 6C-1.37496 3.375 4.75029 3.50025 7.25004 3ZM7.25004 3C9.37479 3 16.25 2.25 13.625 4.875C11.75 6.75 9.37479 4.25025 7.25004 3ZM5.62104 16.371L1.62504 12.375C1.32667 12.0766 1.15905 11.672 1.15905 11.25C1.15905 10.828 1.32667 10.4234 1.62504 10.125C1.92341 9.82663 2.32809 9.65901 2.75004 9.65901C3.172 9.65901 3.57667 9.82663 3.87504 10.125L5.24754 11.4975C5.43279 11.6827 5.75004 11.5515 5.75004 11.2897V2.25C5.75004 1.85218 5.90808 1.47064 6.18938 1.18934C6.47069 0.908035 6.85222 0.75 7.25004 0.75C7.64787 0.75 8.0294 0.908035 8.3107 1.18934C8.59201 1.47064 8.75004 1.85218 8.75004 2.25V8.24775C8.75004 8.4975 9.06429 8.60775 9.21954 8.41275C9.34314 8.25827 9.4999 8.13356 9.67821 8.04787C9.85652 7.96217 10.0518 7.91767 10.2497 7.91767C10.4475 7.91767 10.6428 7.96217 10.8211 8.04787C10.9994 8.13356 11.1562 8.25827 11.2798 8.41275L11.5783 8.7855C11.6269 8.8463 11.6949 8.88857 11.771 8.90522C11.847 8.92188 11.9265 8.91192 11.996 8.877L12.4955 8.62725C12.7298 8.51009 12.9881 8.44909 13.25 8.44909C13.512 8.44909 13.7703 8.51009 14.0045 8.62725C14.4613 8.85525 14.75 9.3225 14.75 9.834V14.25C14.75 15.0456 14.434 15.8087 13.8714 16.3713C13.3088 16.9339 12.5457 17.25 11.75 17.25H7.74279C7.34873 17.25 6.95853 17.1724 6.59447 17.0216C6.23042 16.8708 5.89964 16.6497 5.62104 16.371Z" stroke="white" stroke-linecap="round"/>
</svg>
