<svg width="18" height="18" viewBox="0 0 18 18" fill="none" xmlns="http://www.w3.org/2000/svg">
<path d="M1.5 9C1.5 4.85786 4.85786 1.5 9 1.5C13.1421 1.5 16.5 4.85786 16.5 9C16.5 13.1421 13.1421 16.5 9 16.5C4.85786 16.5 1.5 13.1421 1.5 9ZM2.625 9C2.625 12.5208 5.47919 15.375 9 15.375C12.5208 15.375 15.375 12.5208 15.375 9C15.375 5.47919 12.5208 2.625 9 2.625C5.47919 2.625 2.625 5.47919 2.625 9ZM7.47725 12.3977C7.25759 12.1781 7.25759 11.8219 7.47725 11.6023L10.0795 9L7.47725 6.39775C7.25759 6.17808 7.25759 5.82192 7.47725 5.60225C7.69695 5.38259 8.05305 5.38259 8.27273 5.60225L11.2727 8.60227C11.4924 8.82195 11.4924 9.17805 11.2727 9.39773L8.27273 12.3977C8.05305 12.6174 7.69695 12.6174 7.47725 12.3977Z" fill="#A8A8A8"/>
</svg>
