<svg width="13" height="12" viewBox="0 0 13 12" fill="none" xmlns="http://www.w3.org/2000/svg">
<path d="M6.23244 10.8C7.5548 10.8 8.823 10.2943 9.75805 9.39411C10.6931 8.49394 11.2184 7.27304 11.2184 6C11.2184 4.72696 10.6931 3.50606 9.75805 2.60589C8.823 1.70571 7.5548 1.2 6.23244 1.2C4.91009 1.2 3.64189 1.70571 2.70684 2.60589C1.77179 3.50606 1.24649 4.72696 1.24649 6C1.24649 7.27304 1.77179 8.49394 2.70684 9.39411C3.64189 10.2943 4.91009 10.8 6.23244 10.8ZM6.23244 12C2.79026 12 0 9.3138 0 6C0 2.6862 2.79026 0 6.23244 0C9.67462 0 12.4649 2.6862 12.4649 6C12.4649 9.3138 9.67462 12 6.23244 12ZM6.23244 7.2C6.56303 7.2 6.88008 7.07357 7.11384 6.84853C7.34761 6.62348 7.47893 6.31826 7.47893 6C7.47893 5.68174 7.34761 5.37652 7.11384 5.15147C6.88008 4.92643 6.56303 4.8 6.23244 4.8C5.90185 4.8 5.5848 4.92643 5.35104 5.15147C5.11728 5.37652 4.98595 5.68174 4.98595 6C4.98595 6.31826 5.11728 6.62348 5.35104 6.84853C5.5848 7.07357 5.90185 7.2 6.23244 7.2ZM6.23244 8.4C5.57126 8.4 4.93717 8.14714 4.46964 7.69706C4.00212 7.24697 3.73947 6.63652 3.73947 6C3.73947 5.36348 4.00212 4.75303 4.46964 4.30294C4.93717 3.85286 5.57126 3.6 6.23244 3.6C6.89362 3.6 7.52772 3.85286 7.99524 4.30294C8.46277 4.75303 8.72542 5.36348 8.72542 6C8.72542 6.63652 8.46277 7.24697 7.99524 7.69706C7.52772 8.14714 6.89362 8.4 6.23244 8.4Z" fill="#A8A8A8"/>
</svg>
