<svg width="18" height="18" viewBox="0 0 18 18" fill="none" xmlns="http://www.w3.org/2000/svg">
<path d="M16.8533 16.1445L11.5296 10.8075C13.4888 8.4625 13.3738 4.9535 11.176 2.7505C10.0499 1.6215 8.55166 1 6.95894 1C5.36622 1 3.86902 1.6215 2.74286 2.7505C0.419046 5.0805 0.419046 8.871 2.74286 11.2C3.86952 12.3285 5.36722 12.95 6.95894 12.95C8.39214 12.95 9.74582 12.4425 10.8235 11.52L16.1437 16.8525C16.2402 16.951 16.3697 17 16.4977 17C16.6258 17 16.7548 16.951 16.8523 16.8535C17.0488 16.658 17.0493 16.34 16.8533 16.1445ZM3.38195 10.563C1.40918 8.584 1.40918 5.3655 3.38195 3.3875C4.33808 2.4305 5.60825 1.9025 6.95894 1.9025C8.30962 1.9025 9.5808 2.4305 10.5359 3.3875C12.5092 5.3655 12.5092 8.5845 10.5359 10.563C9.5808 11.52 8.30962 12.0475 6.95894 12.0475C5.60825 12.0475 4.33808 11.52 3.38195 10.563Z" fill="#A1A1A1" stroke="#A1A1A1" stroke-width="0.5"/>
</svg>
