<svg width="16" height="16" viewBox="0 0 16 16" fill="none" xmlns="http://www.w3.org/2000/svg">
<path d="M7.9125 2.23125C9.49039 2.23125 10.8317 2.78365 11.9366 3.88845C13.0414 4.99326 13.5938 6.33461 13.5938 7.9125C13.5938 9.49039 13.0414 10.8317 11.9366 11.9366C10.8317 13.0414 9.49039 13.5938 7.9125 13.5938C6.33461 13.5938 4.99326 13.0414 3.88845 11.9366C2.78365 10.8317 2.23125 9.49039 2.23125 7.9125C2.23125 6.33461 2.78365 4.99326 3.88845 3.88845C4.99326 2.78365 6.33461 2.23125 7.9125 2.23125ZM7.91471 12.3375C9.14449 12.3375 10.1891 11.9071 11.0484 11.0462C11.9078 10.1854 12.3375 9.14007 12.3375 7.91029C12.3375 6.68051 11.9071 5.63594 11.0462 4.77656C10.1854 3.91719 9.14007 3.4875 7.91029 3.4875C6.68051 3.4875 5.63594 3.91792 4.77656 4.77877C3.91719 5.63961 3.4875 6.68493 3.4875 7.91471C3.4875 9.14449 3.91793 10.1891 4.77878 11.0484C5.63961 11.9078 6.68493 12.3375 7.91471 12.3375ZM7.91162 10.5375C8.46846 10.5375 8.97031 10.3766 9.41719 10.0547C9.86406 9.73281 10.1875 9.3125 10.3875 8.79375H5.4375C5.6375 9.3125 5.96064 9.73281 6.40693 10.0547C6.85323 10.3766 7.35479 10.5375 7.91162 10.5375ZM5.26875 6.58667C5.26875 6.76431 5.33149 6.91719 5.45698 7.04531C5.58248 7.17344 5.73404 7.2375 5.91167 7.2375C6.08931 7.2375 6.24219 7.17476 6.37031 7.04927C6.49844 6.92377 6.5625 6.77221 6.5625 6.59458C6.5625 6.41694 6.49976 6.26406 6.37427 6.13594C6.24877 6.00781 6.09721 5.94375 5.91958 5.94375C5.74194 5.94375 5.58906 6.00649 5.46094 6.13198C5.33281 6.25748 5.26875 6.40904 5.26875 6.58667ZM9.2625 6.58667C9.2625 6.76431 9.32524 6.91719 9.45073 7.04531C9.57623 7.17344 9.72779 7.2375 9.90542 7.2375C10.0831 7.2375 10.2359 7.17476 10.3641 7.04927C10.4922 6.92377 10.5563 6.77221 10.5563 6.59458C10.5563 6.41694 10.4935 6.26406 10.368 6.13594C10.2425 6.00781 10.091 5.94375 9.91333 5.94375C9.73569 5.94375 9.58281 6.00649 9.45469 6.13198C9.32656 6.25748 9.2625 6.40904 9.2625 6.58667ZM0 3.4875V2.17789C0 1.56971 0.211456 1.05469 0.634369 0.632812C1.05729 0.210938 1.57084 0 2.175 0H3.4875V1.25625H2.175C1.92 1.25625 1.70313 1.34562 1.52438 1.52437C1.34563 1.70312 1.25625 1.92 1.25625 2.175V3.4875H0ZM2.17789 15.825C1.56971 15.825 1.05469 15.6135 0.632812 15.1906C0.210938 14.7677 0 14.2542 0 13.65V12.3375H1.25625V13.65C1.25625 13.905 1.34563 14.1219 1.52438 14.3006C1.70313 14.4794 1.92 14.5688 2.175 14.5688H3.4875V15.825H2.17789ZM12.3375 15.8063V14.55H13.65C13.905 14.55 14.1219 14.4606 14.3006 14.2819C14.4794 14.1031 14.5688 13.8863 14.5688 13.6313V12.3375H15.825V13.635C15.825 14.2381 15.6135 14.7508 15.1906 15.173C14.7677 15.5952 14.2542 15.8063 13.65 15.8063H12.3375ZM14.5688 3.4875V2.175C14.5688 1.92 14.4794 1.70312 14.3006 1.52437C14.1219 1.34562 13.905 1.25625 13.65 1.25625H12.3375V0H13.6471C14.2553 0 14.7703 0.211456 15.1922 0.634369C15.6141 1.05729 15.825 1.57084 15.825 2.175V3.4875H14.5688Z" fill="#A1A1A1"/>
</svg>
