<svg width="14" height="14" viewBox="0 0 14 14" fill="none" xmlns="http://www.w3.org/2000/svg">
<path d="M7.00478 9.83438C7.54743 9.83438 8.03281 9.66875 8.46094 9.3375C8.88906 9.00625 9.20938 8.58438 9.42188 8.07188H4.58438C4.79688 8.58438 5.11774 9.00625 5.54696 9.3375C5.97618 9.66875 6.46211 9.83438 7.00478 9.83438ZM5.24889 7.2C5.49338 7.2 5.7 7.11508 5.86875 6.94523C6.0375 6.77537 6.12188 6.56913 6.12188 6.32648C6.12188 6.08383 6.03695 5.87656 5.8671 5.70469C5.69725 5.53281 5.491 5.44688 5.24835 5.44688C5.0057 5.44688 4.79844 5.53244 4.62656 5.70358C4.45469 5.87472 4.36875 6.08253 4.36875 6.32702C4.36875 6.57151 4.45432 6.77813 4.62546 6.94688C4.79659 7.11563 5.00441 7.2 5.24889 7.2ZM8.76452 7.2C9.00901 7.2 9.21563 7.11508 9.38438 6.94523C9.55313 6.77537 9.6375 6.56913 9.6375 6.32648C9.6375 6.08383 9.55258 5.87656 9.38272 5.70469C9.21288 5.53281 9.00663 5.44688 8.76398 5.44688C8.52133 5.44688 8.31406 5.53244 8.14219 5.70358C7.97031 5.87472 7.88438 6.08253 7.88438 6.32702C7.88438 6.57151 7.96994 6.77813 8.14108 6.94688C8.31222 7.11563 8.52003 7.2 8.76452 7.2ZM3.975 3.12188L6 0.50625C6.12894 0.3381 6.28336 0.211687 6.46326 0.127012C6.64316 0.0423373 6.83123 0 7.02748 0C7.22374 0 7.40625 0.04375 7.575 0.13125C7.74375 0.21875 7.89375 0.34375 8.025 0.50625L10.05 3.12188L13.1438 4.125C13.4188 4.225 13.6313 4.38716 13.7813 4.61149C13.9313 4.8358 14.0063 5.0814 14.0063 5.34829C14.0063 5.47508 13.9889 5.60186 13.9541 5.72863C13.9193 5.85542 13.8617 5.97713 13.7813 6.09375L11.8031 8.85938L11.8781 11.85C11.8719 12.2188 11.7469 12.5328 11.5031 12.7922C11.2594 13.0516 10.9645 13.1813 10.6186 13.1813C10.5708 13.1813 10.4531 13.1594 10.2656 13.1156L7.00313 12.2156L3.74721 13.1171C3.68657 13.1411 3.62813 13.1578 3.57188 13.1672C3.51563 13.1766 3.45919 13.1813 3.40258 13.1813C3.06022 13.1813 2.76066 13.05 2.50389 12.7875C2.24713 12.525 2.125 12.2094 2.1375 11.8406L2.2125 8.86875L0.225 6.08438C0.144163 5.96669 0.0864562 5.84933 0.0518812 5.73231C0.0172937 5.61529 0 5.49186 0 5.36199C0 5.08701 0.0782688 4.83588 0.234806 4.6086C0.391331 4.38134 0.609938 4.22014 0.890625 4.125L3.975 3.12188ZM4.70625 4.19063L1.2375 5.34375L3.47625 8.50395L3.39375 11.925L7.00313 10.9031L10.6406 11.8969L10.5375 8.48438L12.7781 5.325L9.27984 4.2L7.00313 1.28438L4.70625 4.19063Z" fill="#A1A1A1"/>
</svg>
