<svg width="14" height="11" viewBox="0 0 14 11" fill="none" xmlns="http://www.w3.org/2000/svg">
<path d="M0 10.3125V8.7C0 8.39025 0.0734375 8.10813 0.220313 7.85363C0.367188 7.59913 0.575138 7.39368 0.844163 7.2373C1.50639 6.84993 2.20625 6.55156 2.94375 6.34219C3.68125 6.13281 4.44688 6.02813 5.24063 6.02813C6.03438 6.02813 6.79844 6.13281 7.53281 6.34219C8.26719 6.55156 8.96549 6.84993 9.62771 7.2373C9.89674 7.39368 10.1047 7.59913 10.2516 7.85363C10.3984 8.10813 10.4719 8.39025 10.4719 8.7V10.3125H0ZM11.7938 10.3125V8.71875C11.7938 8.2 11.6734 7.72656 11.4328 7.29844C11.1922 6.87031 10.8719 6.52188 10.4719 6.25313C10.9281 6.35313 11.3703 6.48281 11.7984 6.64219C12.2266 6.80156 12.6375 7.00313 13.0313 7.24688C13.2875 7.39063 13.4891 7.59483 13.6359 7.85949C13.7828 8.12416 13.8563 8.41058 13.8563 8.71875V10.3125H11.7938ZM5.24063 5.175C4.51562 5.175 3.90313 4.925 3.40313 4.425C2.90313 3.925 2.65313 3.3125 2.65313 2.5875C2.65313 1.8625 2.90313 1.25 3.40313 0.75C3.90313 0.25 4.51562 0 5.24063 0C5.96563 0 6.57813 0.25 7.07813 0.75C7.57813 1.25 7.82813 1.8625 7.82813 2.5875C7.82813 3.3125 7.57813 3.925 7.07813 4.425C6.57813 4.925 5.96563 5.175 5.24063 5.175ZM11.2031 2.57813C11.2031 3.29719 10.9531 3.90821 10.4531 4.41118C9.95312 4.91414 9.34063 5.16563 8.61563 5.16563C8.53438 5.16563 8.45826 5.16348 8.38729 5.15918C8.31631 5.15488 8.23618 5.1414 8.14688 5.11875C8.45335 4.77261 8.69559 4.38764 8.87361 3.96384C9.05162 3.54003 9.14062 3.07969 9.14062 2.58281C9.14062 2.08594 9.05156 1.62344 8.87344 1.19531C8.69531 0.767188 8.45312 0.38125 8.14688 0.0375C8.22813 0.01875 8.30625 0.0078125 8.38125 0.0046875C8.45625 0.0015625 8.53438 0 8.61563 0C9.34063 0 9.95312 0.250569 10.4531 0.751706C10.9531 1.25283 11.2031 1.86164 11.2031 2.57813ZM1.25625 9.05625H9.21563V8.7C9.21563 8.61675 9.19672 8.54106 9.15891 8.47294C9.12109 8.40483 9.06813 8.35239 9 8.31563C8.41875 7.98438 7.81141 7.72969 7.17797 7.55156C6.54454 7.37344 5.89876 7.28438 5.24063 7.28438C4.58039 7.28438 3.93251 7.37031 3.297 7.54219C2.6615 7.71406 2.05313 7.97188 1.47188 8.31563C1.40375 8.35095 1.35078 8.40138 1.31297 8.4669C1.27516 8.53243 1.25625 8.60954 1.25625 8.69826V9.05625ZM5.24344 3.91875C5.61031 3.91875 5.92344 3.78813 6.18281 3.52688C6.44219 3.26561 6.57188 2.95155 6.57188 2.58469C6.57188 2.21781 6.44125 1.90469 6.18 1.64531C5.91874 1.38594 5.60468 1.25625 5.23781 1.25625C4.87094 1.25625 4.55781 1.38688 4.29844 1.64813C4.03906 1.90939 3.90938 2.22345 3.90938 2.59031C3.90938 2.95719 4.04 3.27031 4.30125 3.52969C4.56251 3.78906 4.87657 3.91875 5.24344 3.91875Z" fill="#A1A1A1"/>
</svg>
