<svg width="15" height="15" viewBox="0 0 15 15" fill="none" xmlns="http://www.w3.org/2000/svg">
<path d="M5.69008 10.1438C6.92169 10.1438 7.97188 9.71172 8.84063 8.84766C9.70938 7.98359 10.1438 6.93438 10.1438 5.7C10.1438 4.46563 9.70938 3.41641 8.84063 2.55234C7.97188 1.68828 6.92169 1.25625 5.69008 1.25625C4.45846 1.25625 3.41158 1.68828 2.54946 2.55234C1.68732 3.41641 1.25625 4.46563 1.25625 5.7C1.25625 6.93438 1.68732 7.98359 2.54946 8.84766C3.41158 9.71172 4.45846 10.1438 5.69008 10.1438ZM5.07188 7.875V2.64375H6.32813V7.875H5.07188ZM2.65313 7.875V4.41563H3.90938V7.875H2.65313ZM7.5 7.875V5.29688H8.75625V7.875H7.5ZM13.125 14.025L9.2625 10.1531C8.76978 10.5469 8.22035 10.8531 7.61422 11.0719C7.00811 11.2906 6.36904 11.4 5.697 11.4C4.1121 11.4 2.76638 10.846 1.65983 9.73792C0.553275 8.62986 0 7.28455 0 5.70199C0 4.11941 0.554688 2.77344 1.66406 1.66406C2.77344 0.554688 4.11719 0 5.69531 0C7.27344 0 8.61875 0.552806 9.73125 1.65842C10.8438 2.76403 11.4 4.11335 11.4 5.70638C11.4 6.37616 11.2906 7.01311 11.0719 7.61723C10.8531 8.22135 10.5469 8.76978 10.1531 9.2625L14.0156 13.1344L13.125 14.025Z" fill="#A8A8A8"/>
</svg>
