<svg width="13" height="13" viewBox="0 0 13 13" fill="none" xmlns="http://www.w3.org/2000/svg">
<path fill-rule="evenodd" clip-rule="evenodd" d="M11.5633 5.94523H7.21037V1.59226C7.21037 1.19106 6.88534 0.86676 6.48487 0.86676C6.0844 0.86676 5.75938 1.19106 5.75938 1.59226V5.94523H1.4064C1.00593 5.94523 0.680908 6.26952 0.680908 6.67072C0.680908 7.07192 1.00593 7.39622 1.4064 7.39622H5.75938V11.7492C5.75938 12.1504 6.0844 12.4747 6.48487 12.4747C6.88534 12.4747 7.21037 12.1504 7.21037 11.7492V7.39622H11.5633C11.9638 7.39622 12.2888 7.07192 12.2888 6.67072C12.2888 6.26952 11.9638 5.94523 11.5633 5.94523" fill="white"/>
</svg>
